<svg xmlns="http://www.w3.org/2000/svg" version="1.1" xmlns:xlink="http://www.w3.org/1999/xlink" xmlns:svgjs="http://svgjs.dev/svgjs" viewBox="0 0 800 800"><defs><filter id="uuunion-blur" x="-100%" y="-100%" width="400%" height="400%" color-interpolation-filters="sRGB">
        <feGaussianBlur in="SourceGraphic" stdDeviation="7.5 0" result="blur"></feGaussianBlur>
        <feDropShadow stdDeviation="12.307692307692308" in="blur" dx="10" dy="10" flood-color="hsl(270, 56%, 30%)" flood-opacity="0.25" x="0%" y="0%" width="100%" height="100%"></feDropShadow>
      </filter><filter id="uuunion-blur2" x="-100%" y="-100%" width="400%" height="400%" color-interpolation-filters="sRGB">
        <feGaussianBlur in="SourceGraphic" stdDeviation="7.5 0" result="blur"></feGaussianBlur>
        <feDropShadow stdDeviation="12.307692307692308" in="blur" dx="-10" dy="-10" flood-color="hsl(270, 56%, 30%)" flood-opacity="0.25" x="0%" y="0%" width="100%" height="100%"></feDropShadow>
      </filter><linearGradient gradientTransform="rotate(0, 0.5, 0.5)" x1="50%" y1="0%" x2="50%" y2="100%" id="uuunion-grad"><stop stop-color="hsl(222, 49%, 47%)" offset="10%"></stop><stop stop-color="hsl(270, 56%, 30%)" offset="90%"></stop></linearGradient><linearGradient gradientTransform="rotate(135, 0.5, 0.5)" x1="50%" y1="0%" x2="50%" y2="100%" id="uuunion-grad2"><stop stop-color="hsl(222, 49%, 47%)" offset="25%"></stop><stop stop-color="hsl(270, 56%, 30%)" offset="100%"></stop></linearGradient><linearGradient gradientTransform="rotate(333, 0.5, 0.5)" x1="50%" y1="0%" x2="50%" y2="100%" id="uuunion-grad3"><stop stop-color="hsl(222, 49%, 47%)" offset="0%"></stop><stop stop-color="hsl(270, 56%, 30%)" offset="75%"></stop></linearGradient></defs><path d="M-78.9 -82.51Q-64.29 -79.47 -49.69 -76.5 -35.08 -73.95 -20.47 -72.13 -5.86 -71.25 8.74 -71.43 23.35 -72.64 37.96 -74.74 52.57 -77.46 67.18 -80.5 81.79 -83.47 96.4 -86.02 111.01 -87.85 125.62 -88.73 140.23 -88.56 154.84 -87.36 169.45 -85.27 184.06 -82.54 198.67 -79.51 213.28 -76.54 227.89 -73.98 242.5 -72.15 257.11 -71.26 271.72 -71.42 286.33 -72.62 300.94 -74.71 315.55 -77.43 330.16 -80.46 344.77 -83.44 359.37 -86 373.98 -87.84 388.59 -88.73 403.2 -88.57 417.81 -87.38 432.42 -85.3 447.03 -82.58 461.64 -79.55 476.25 -76.57 490.86 -74.01 505.47 -72.16 520.08 -71.26 534.69 -71.42 549.3 -72.6 563.91 -74.68 578.52 -77.39 593.13 -80.42 607.74 -83.4 622.35 -85.97 636.96 -87.82 651.57 -88.72 666.18 -88.58 680.79 -87.4 695.4 -85.33 710.01 -82.61 724.62 -79.58 739.23 -76.6 753.84 -74.03 768.44 -72.18 783.05 -71.27 797.66 -71.41 812.27 -72.58 826.88 -74.65 841.49 -77.36 856.1 -80.39 856.32 -65.4 858.93 -50.41 863.66 -35.42 870.05 -20.43 877.44 -5.44 885.08 9.54 892.22 24.53 898.12 39.52 902.19 54.51 904.02 69.5 903.42 84.49 900.45 99.48 895.42 114.47 888.84 129.46 881.36 144.45 873.74 159.44 866.75 174.43 861.1 189.42 857.36 204.41 855.91 219.4 856.88 234.39 860.2 249.38 865.51 264.37 872.28 279.36 879.84 294.35 887.41 309.34 894.23 324.33 899.61 339.32 903.01 354.31 904.09 369.3 902.74 384.29 899.08 399.28 893.5 414.27 886.56 429.26 878.95 444.25 871.45 459.24 864.81 474.23 859.71 489.22 856.65 504.21 855.95 519.2 857.68 534.19 861.66 549.18 867.5 564.17 874.6 579.16 882.24 594.15 889.65 609.14 896.09 624.13 900.91 639.12 903.61 654.11 903.93 669.1 901.83 684.09 897.52 699.08 891.45 714.07 884.22 729.06 876.56 744.05 869.25 759.04 863.02 774.03 858.51 789.02 856.17 804.01 856.23 819 858.7 833.99 863.31 848.98 869.61 863.97 876.96 878.96 862.01 886.94 847.06 894.09 832.11 899.54 817.16 902.63 802.21 903 787.26 900.6 772.31 895.72 757.36 888.94 742.41 881.08 727.46 873.09 712.51 865.94 697.56 860.48 682.61 857.37 667.66 856.98 652.71 859.37 637.76 864.24 622.8 871.01 607.85 878.86 592.9 886.85 577.95 894.01 563 899.49 548.05 902.61 533.1 903.02 518.15 900.64 503.2 895.79 488.25 889.02 473.3 881.18 458.35 873.19 443.4 866.02 428.45 860.53 413.5 857.39 398.55 856.97 383.6 859.32 368.65 864.17 353.7 870.92 338.75 878.77 323.8 886.76 308.85 893.94 293.89 899.44 278.94 902.59 263.99 903.03 249.04 900.69 234.09 895.86 219.14 889.11 204.19 881.27 189.24 873.28 174.29 866.09 159.34 860.58 144.39 857.41 129.44 856.96 114.49 859.28 99.54 864.1 84.59 870.83 69.64 878.67 54.69 886.67 39.74 893.86 24.79 899.38 9.84 902.57 -5.1 903.04 -20.05 900.73 -35.01 895.92 -49.96 889.2 -64.91 881.37 -79.86 873.37 -79.52 858.43 -79.23 843.5 -79.02 828.56 -78.91 813.63 -78.91 798.69 -79.01 783.75 -79.22 768.82 -79.5 753.88 -79.84 738.95 -80.19 724.01 -80.52 709.08 -80.8 694.14 -80.99 679.2 -81.09 664.27 -81.07 649.33 -80.95 634.4 -80.73 619.46 -80.44 604.53 -80.1 589.59 -79.75 574.65 -79.42 559.72 -79.16 544.78 -78.98 529.85 -78.9 514.91 -78.93 499.97 -79.07 485.04 -79.3 470.1 -79.6 455.17 -79.95 440.23 -80.29 425.3 -80.61 410.36 -80.87 395.42 -81.03 380.49 -81.09 365.55 -81.05 350.62 -80.89 335.68 -80.64 320.75 -80.33 305.81 -79.99 290.87 -79.64 275.94 -79.33 261 -79.09 246.07 -78.94 231.13 -78.9 216.2 -78.96 201.26 -79.13 186.32 -79.39 171.39 -79.71 156.45 -80.06 141.52 -80.4 126.58 -80.7 111.65 -80.93 96.71 -81.06 81.77 -81.09 66.84 -81.01 51.9 -80.82 36.97 -80.55 22.03 -80.23 7.1 -79.88 -7.83 -79.54 -22.77 -79.25 -37.7 -79.03 -52.64 -78.91 -67.57 -78.9 -82.51" fill="url(#uuunion-grad)"></path><path d="M-78.9 -82.51Q-78.91 -67.57 -79.03 -52.64 -79.25 -37.7 -79.54 -22.77 -79.88 -7.83 -80.23 7.1 -80.55 22.03 -80.82 36.97 -81.01 51.9 -81.09 66.84 -81.06 81.77 -80.93 96.71 -80.7 111.65 -80.4 126.58 -80.06 141.52 -79.71 156.45 -79.39 171.39 -79.13 186.32 -78.96 201.26 -78.9 216.2 -78.94 231.13 -79.09 246.07 -79.33 261 -79.64 275.94 -79.99 290.87 -80.33 305.81 -80.64 320.75 -80.89 335.68 -81.05 350.62 -81.09 365.55 -81.03 380.49 -80.87 395.42 -70.66 399.08 -60.45 402.79 -50.24 406.34 -40.03 409.56 -29.83 412.26 -19.62 414.3 -0.48 415.88 2.82 415.98 15.65 408.76 28.5 400.31 41.36 390.82 54.2 380.57 67.02 369.9 79.78 359.2 92.48 348.82 105.11 339.11 117.63 330.34 130.05 322.72 142.36 316.34 154.55 311.21 166.62 307.2 178.56 304.12 190.39 301.7 202.11 299.61 213.73 297.5 225.27 295.02 236.75 291.86 248.18 287.79 259.59 282.62 270.99 276.29 282.43 268.81 293.92 260.31 305.49 250.98 317.16 241.09 328.97 230.95 340.92 220.9 353.05 211.23 365.38 202.24 377.9 194.13 390.64 187.06 403.61 181.07 416.79 176.13 430.2 172.12 443.81 168.83 457.62 166.01 471.61 163.36 485.76 160.59 500.03 157.4 514.41 153.56 528.85 148.86 543.32 143.2 557.78 136.53 572.19 128.92 586.51 120.48 600.7 111.41 614.72 101.96 628.54 92.4 642.11 83.01 655.42 74.04 668.43 65.71 681.13 58.18 693.49 51.56 705.51 45.84 717.19 40.98 728.52 36.85 739.52 33.25 750.21 29.95 760.61 26.71 770.75 23.27 780.67 19.41 790.4 14.93 800 9.7 791.99 -8.05 785.08 -25.8 780.22 -43.56 778.07 -61.31 778.92 -79.07 782.66 -96.82 788.77 -114.58 796.43 -132.33 781.58 -133.44 766.74 -135.32 751.9 -137.77 737.06 -140.47 722.21 -143.13 707.37 -145.4 692.53 -147.04 677.69 -147.83 662.84 -147.7 648 -146.65 633.16 -144.8 618.31 -142.39 603.47 -139.69 588.63 -137.02 573.79 -134.71 558.94 -133.03 544.1 -132.18 529.26 -132.25 514.41 -133.25 499.57 -135.05 484.73 -137.44 469.89 -140.13 455.04 -142.81 440.2 -145.15 425.36 -146.88 410.51 -147.79 395.67 -147.77 380.83 -146.83 365.99 -145.07 351.14 -142.71 336.3 -140.03 321.46 -137.34 306.62 -134.97 291.77 -133.2 276.93 -132.23 262.09 -132.19 247.24 -133.08 232.4 -134.79 217.56 -137.12 202.72 -139.79 187.87 -142.49 173.03 -144.88 158.19 -146.7 143.34 -147.72 128.5 -147.82 113.66 -146.99 98.82 -145.33 83.97 -143.03 69.13 -140.37 54.29 -137.67 39.44 -135.24 24.6 -133.38 9.76 -132.31 -5.07 -132.15 -19.92 -132.92 -34.76 -134.54 -49.6 -136.8 -64.44 -139.45 -79.29 -142.16 -94.13 -144.61 -108.97 -146.51 -123.82 -147.64 -133.06 -134.82 -115.51 -117.62 -106.25 -109.3 -97.07 -100.65 -87.96 -91.7 -78.9 -82.51" fill="url(#uuunion-grad2)" filter="url(#uuunion-blur)"></path><path d="M817.42 415.52Q827.63 415.99 837.84 415.61 848.04 414.38 858.25 412.38 868.46 409.72 878.67 406.52 891.19 408.63 886.56 429.26 878.95 444.25 871.45 459.24 864.81 474.23 859.71 489.22 856.65 504.21 855.95 519.2 857.68 534.19 861.66 549.18 867.5 564.17 874.6 579.16 882.24 594.15 889.65 609.14 896.09 624.13 900.91 639.12 903.61 654.11 903.93 669.1 901.83 684.09 897.52 699.08 891.45 714.07 884.22 729.06 876.56 744.05 869.25 759.04 863.02 774.03 858.51 789.02 856.17 804.01 856.23 819 858.7 833.99 863.31 848.98 869.61 863.97 876.96 878.96 863.24 886.3 849.52 893.01 835.8 898.39 822.08 901.91 808.36 903.19 794.64 902.12 780.92 898.8 767.2 893.58 753.48 886.97 739.76 879.65 726.04 872.37 712.32 865.86 698.6 860.79 684.88 857.67 671.16 856.82 657.44 858.32 643.72 862.03 630 867.56 616.28 874.36 602.56 881.73 588.84 888.92 575.12 895.2 561.4 899.94 547.68 902.66 533.96 903.07 520.24 901.13 506.52 897.05 492.8 891.24 479.08 884.28 465.36 876.89 451.64 869.81 437.92 863.77 424.2 859.37 410.48 857.08 396.76 857.11 383.04 859.46 369.32 863.91 355.6 869.98 341.88 877.08 328.16 884.47 314.44 891.41 300.72 897.18 287 901.21 273.28 903.09 259.56 902.62 245.84 899.84 232.12 895.06 218.4 888.74 204.67 881.53 190.95 874.17 177.23 867.4 163.51 861.91 149.79 858.25 136.07 856.81 122.35 857.72 108.63 860.9 94.91 866.01 81.19 872.55 67.47 879.84 53.75 887.15 40.03 893.73 26.31 898.92 5.63 897.61 -1.51 882.89 -1.67 872.74 -1.8 862.59 -1.9 852.44 -1.96 842.29 -1.71 827.07 -0.96 822 11.27 814.73 23.56 805.72 35.92 795.22 48.37 783.58 60.9 771.26 73.53 758.8 86.26 746.69 99.1 735.44 112.04 725.44 125.07 717.01 138.18 710.31 151.37 705.36 164.62 702.05 177.91 700.1 191.22 699.15 204.54 698.74 217.84 698.39 231.09 697.59 244.27 695.9 257.37 692.94 270.35 688.46 283.21 682.31 295.91 674.5 308.45 665.18 320.82 654.62 333 643.2 345 631.35 356.8 619.54 368.42 608.24 379.86 597.87 391.14 588.76 402.28 581.14 413.28 575.11 424.19 570.63 435.02 567.54 445.81 565.57 456.6 564.34 467.41 563.43 478.28 562.39 489.25 560.78 500.35 558.22 511.63 554.42 523.09 549.17 534.79 542.42 546.74 534.22 558.97 524.75 571.48 514.28 584.3 503.19 597.43 491.89 610.86 480.79 624.59 470.31 638.61 460.78 652.9 452.48 667.44 445.56 682.18 440.06 697.11 435.9 712.17 432.9 727.32 430.77 742.52 429.15 757.71 427.65 772.85 425.88 787.88 423.46 810.09 417.8 817.42 415.52" fill="url(#uuunion-grad3)" filter="url(#uuunion-blur2)"></path></svg>